# xmcd
#
# Track frame offsets: 
#        150
#        27623
#        48298
#        74978
#        92638
#        114254
#        133175
#        159957
#        178366
#        194282
#        218064
#        237260
#        264599
#        282333
#        295321
#        315735
#        332664
#
# Disc length: 4716 seconds
#
# Revision: 0
# Processed by: cddbd v1.5.1PL2 Copyright (c) Steve Scherf et al.
# Submitted via: ExactAudioCopy v0.95b2
#
DISCID=0b126a11
DTITLE=Dido - Live
DYEAR=2005
DGENRE=Pop
TTITLE0=Stoned
TTITLE1=Here With Me
TTITLE2=See You When Your 40
TTITLE3=Life For Rent
TTITLE4=Isobel
TTITLE5=Honestly Okay
TTITLE6=Take My Hand
TTITLE7=Thank You
TTITLE8=Marys In India
TTITLE9=Sand In My Shoes
TTITLE10=White Flag
TTITLE11=See The Sun
TTITLE12=Hunter
TTITLE13=My Life
TTITLE14=Don't Think Of Me
TTITLE15=Don't Leave Home
TTITLE16=Feels Like Fire
EXTD=
EXTT0=
EXTT1=
EXTT2=
EXTT3=
EXTT4=
EXTT5=
EXTT6=
EXTT7=
EXTT8=
EXTT9=
EXTT10=
EXTT11=
EXTT12=
EXTT13=
EXTT14=
EXTT15=
EXTT16=
PLAYORDER=
